<?xml version="1.0" standalone="no"?>
<!DOCTYPE svg PUBLIC "-//W3C//DTD SVG 20010904//EN"
 "http://www.w3.org/TR/2001/REC-SVG-20010904/DTD/svg10.dtd">
<svg version="1.0" xmlns="http://www.w3.org/2000/svg"
 width="560.000000pt" height="560.000000pt" viewBox="0 0 560.000000 560.000000"
 preserveAspectRatio="xMidYMid meet">
<metadata>
Created by potrace 1.14, written by Peter Selinger 2001-2017
</metadata>
<g transform="translate(0.000000,560.000000) scale(0.100000,-0.100000)"
fill="#000000" stroke="none">
<path d="M1547 5585 c-7 -6 -18 -10 -25 -7 -6 2 -12 -2 -12 -9 0 -7 -3 -9 -6
-6 -13 13 -132 -94 -202 -180 -27 -34 -102 -186 -102 -207 0 -8 -5 -18 -11
-21 -6 -4 -8 -13 -5 -20 2 -7 2 -16 -2 -19 -12 -13 -22 -91 -28 -221 -6 -110
-9 -124 -35 -129 -8 -2 -21 -6 -29 -9 -8 -3 -37 -13 -65 -22 -62 -22 -255
-117 -255 -126 0 -14 -40 -17 -41 -3 -2 16 -5 33 -9 37 -24 30 -15 316 11 342
4 3 33 -19 65 -50 33 -31 71 -62 85 -69 28 -14 102 -12 107 4 2 6 7 8 12 5 4
-3 19 8 33 24 18 22 24 39 21 68 -13 173 -201 436 -319 445 -14 1 -25 7 -25
12 0 6 -5 5 -12 -2 -7 -7 -20 -12 -30 -12 -32 0 -83 -32 -113 -71 -16 -22 -35
-45 -40 -52 -17 -19 -44 -88 -55 -137 -10 -47 -7 -383 4 -435 22 -99 65 -211
95 -246 6 -8 19 -23 29 -34 20 -24 82 -56 94 -49 4 3 8 0 8 -7 0 -18 142 -5
225 22 39 12 72 25 75 28 3 3 16 8 30 10 14 1 28 7 31 13 3 5 8 9 10 8 2 -1
45 10 94 26 50 15 95 29 100 30 6 1 37 10 70 20 33 10 65 18 70 19 6 1 12 3
15 4 8 4 43 11 68 13 12 1 22 5 22 8 0 3 12 6 28 7 28 3 67 10 67 13 0 1 9 3
20 4 11 2 34 6 50 9 39 9 92 17 130 22 17 2 46 6 65 9 19 3 62 8 95 11 32 4
63 9 67 11 4 3 8 0 8 -7 0 -8 4 -8 13 -1 42 35 763 33 1163 -3 149 -14 181
-16 229 -20 28 -2 51 -4 53 -5 1 -2 16 -4 32 -5 17 -1 31 -4 33 -5 1 -1 20 -4
42 -5 22 -2 58 -7 80 -10 22 -3 56 -7 75 -9 19 -2 35 -5 35 -6 0 -1 14 -3 30
-3 17 -1 35 -5 40 -8 6 -3 22 -5 38 -4 15 0 27 -3 27 -8 0 -4 4 -5 10 -2 5 3
38 1 72 -6 35 -6 79 -12 99 -14 20 -1 40 -4 45 -7 5 -3 33 -9 63 -12 29 -4 57
-9 62 -11 4 -3 32 -7 61 -10 29 -2 53 -5 53 -5 0 -1 18 -4 40 -6 80 -10 90
-11 120 -18 42 -10 105 -38 105 -46 0 -17 -53 -53 -145 -98 -127 -63 -274
-130 -293 -133 -4 0 -18 -7 -32 -15 -40 -22 -160 -73 -160 -68 0 2 -17 -5 -37
-16 -21 -11 -42 -20 -46 -20 -5 0 -23 -6 -40 -14 -56 -25 -272 -111 -279 -111
-3 0 -10 -3 -14 -7 -4 -5 -16 -8 -26 -8 -10 0 -18 -4 -18 -8 0 -5 -6 -9 -14
-9 -7 0 -44 -12 -82 -28 -38 -15 -78 -31 -89 -35 -11 -4 -31 -12 -45 -18 -99
-42 -119 -50 -124 -44 -3 3 -6 0 -6 -7 0 -7 -4 -10 -9 -6 -5 3 -12 1 -16 -5
-4 -6 -11 -8 -16 -5 -5 4 -9 2 -9 -3 0 -6 -12 -13 -27 -17 -16 -4 -70 -27
-121 -51 -52 -24 -96 -44 -98 -44 -2 0 -84 -39 -182 -87 -97 -48 -180 -86
-184 -85 -5 1 -8 -1 -8 -6 0 -4 -20 -16 -45 -27 -25 -11 -45 -23 -45 -27 0 -5
-5 -8 -10 -8 -9 0 -158 -84 -278 -155 -9 -6 -39 -24 -67 -40 -66 -39 -147 -91
-162 -105 -7 -6 -13 -7 -13 -3 0 4 -4 3 -8 -2 -4 -6 -41 -33 -82 -60 -81 -53
-214 -181 -205 -196 4 -5 3 -9 -2 -9 -10 0 -32 -49 -39 -86 -3 -15 -8 -32 -11
-37 -14 -22 -21 -687 -9 -897 10 -186 23 -338 32 -396 3 -22 8 -52 9 -69 2
-26 11 -82 30 -190 3 -16 8 -37 11 -45 3 -8 8 -26 10 -39 15 -78 98 -165 168
-175 8 -1 18 -5 21 -8 10 -10 86 35 97 57 6 11 18 26 26 34 10 10 11 16 3 19
-6 2 -8 9 -4 15 12 19 12 21 29 357 3 52 7 138 10 190 3 52 7 129 9 170 2 41
6 132 9 202 3 71 7 132 11 137 3 5 1 12 -5 16 -6 4 -7 12 -3 18 4 7 8 37 9 67
1 30 5 89 8 130 3 41 8 104 11 140 3 36 7 81 10 100 4 19 8 53 11 75 7 62 14
78 49 111 35 33 209 144 225 144 6 0 10 4 10 8 0 5 19 18 43 31 23 12 58 31
77 43 61 36 153 87 220 120 36 18 67 35 70 38 3 3 43 24 90 46 265 129 309
148 323 146 4 -1 7 2 7 8 0 5 4 10 9 10 5 0 39 14 74 30 36 17 69 30 74 30 5
0 34 12 64 26 30 15 60 27 67 27 6 0 12 4 12 9 0 5 4 7 8 4 4 -2 21 2 37 9 17
8 66 28 110 45 44 17 94 37 110 45 44 20 93 37 101 35 4 -1 10 2 13 7 3 5 56
29 116 54 61 24 112 47 113 51 2 5 11 8 20 8 10 0 34 9 55 20 20 11 38 19 39
18 2 -1 19 6 38 15 120 54 170 75 170 69 0 -4 4 -2 8 3 9 13 78 45 96 45 8 0
19 7 26 15 7 8 16 12 21 9 5 -3 9 0 9 7 0 7 3 10 6 7 5 -6 133 50 259 114 191
96 378 320 331 396 -4 6 -3 12 3 12 14 0 2 71 -15 91 -8 8 -14 21 -14 27 0 23
-125 139 -175 161 -92 42 -109 48 -162 57 -16 3 -37 8 -48 11 -22 7 -27 9 -70
17 -53 10 -79 16 -105 21 -14 3 -41 8 -60 11 -19 3 -42 7 -50 9 -8 3 -32 7
-54 11 -21 3 -47 7 -56 9 -10 2 -40 6 -67 10 -26 4 -59 9 -73 11 -56 9 -146
21 -210 28 -19 2 -35 5 -35 6 0 2 -79 12 -117 13 -21 1 -38 5 -38 8 0 3 -16 5
-35 4 -19 -1 -35 1 -35 4 0 4 -15 7 -32 7 -34 1 -163 12 -163 14 0 1 -20 3
-45 5 -25 2 -58 6 -75 9 -16 4 -57 9 -90 12 -33 3 -71 7 -85 9 -171 30 -827
24 -1095 -10 -27 -3 -66 -8 -85 -10 -19 -3 -69 -10 -110 -16 -41 -7 -82 -13
-90 -14 -8 -1 -28 -5 -45 -8 -53 -12 -100 -20 -117 -21 -10 0 -18 -4 -18 -8 0
-4 -9 -5 -20 -3 -11 2 -20 -1 -20 -6 0 -6 -3 -8 -8 -5 -6 4 -59 -8 -187 -40
-11 -3 -31 -7 -45 -10 -13 -3 -27 -10 -31 -15 -4 -7 -12 -4 -23 6 -9 9 -14 20
-12 23 2 4 7 31 10 61 11 94 66 229 112 272 20 19 24 20 24 6 0 -9 0 -19 0
-22 0 -22 74 -139 112 -177 42 -43 50 -47 73 -38 25 9 75 50 62 50 -4 0 -2 12
4 28 15 38 19 72 19 182 -1 145 -10 222 -32 264 -14 26 -59 66 -75 66 -6 0
-13 5 -15 10 -5 15 -87 19 -101 5z"/>
<path d="M1204 4211 c-3 -3 -9 -6 -12 -6 -17 -1 -58 -30 -77 -54 -24 -30 -61
-118 -70 -164 -23 -128 -22 -358 2 -417 14 -31 50 -65 83 -76 36 -11 200 -13
200 -2 0 5 4 6 10 3 5 -3 23 14 41 37 44 61 74 132 83 200 1 10 5 20 7 23 10
9 1 169 -11 199 -6 16 -8 31 -6 34 3 2 0 14 -6 26 -7 11 -13 23 -14 26 -12 49
-86 150 -109 150 -8 0 -15 4 -17 9 -3 11 -95 21 -104 12z"/>
<path d="M1708 599 c-100 -98 -137 -181 -133 -299 4 -91 5 -94 34 -150 29 -56
55 -85 106 -118 54 -34 178 -41 234 -12 52 26 95 73 129 141 27 53 30 68 28
147 -2 102 -27 162 -98 232 -54 53 -152 111 -199 117 -33 5 -41 0 -101 -58z"/>
</g>
</svg>
